<svg width="939" height="242" viewBox="0 0 939 242" fill="none" xmlns="http://www.w3.org/2000/svg">
<g clip-path="url(#clip0_109_2)">
<path d="M340.015 110.07L308.076 83.6118L271.346 117.14H350.156L340.015 110.07Z" fill="#FFA16C"/>
<path d="M275.336 113.496L308.074 83.6118L296.017 117.14H271.344L275.336 113.496Z" fill="#935351"/>
<path d="M216.961 118.404L262.783 76.5752L310.841 123.505H211.372L216.961 118.404Z" fill="#FFA16C"/>
<path d="M216.961 118.404L262.783 76.5752L245.907 123.505H211.372L216.961 118.404Z" fill="#935351"/>
<path d="M568.191 123.998L426.571 0L297.476 123.998H568.191Z" fill="#FFA16C"/>
<path d="M297.481 123.998L426.575 0L382.165 123.998H297.481Z" fill="#935351"/>
<path d="M-6.10352e-05 73.4814C-6.10352e-05 73.4814 110.447 81.5252 185.526 102.788C279.828 129.494 344.744 108.765 344.744 108.765L333.246 185.151L-6.10352e-05 163.222V128.283V73.4814Z" fill="#B26969"/>
<path d="M68.7799 84.8199C68.7799 84.8199 65.6978 87.4914 66.4917 85.4292C66.7249 84.8669 66.8654 84.445 67.052 84.07C67.1455 83.8357 66.8654 83.6481 66.6783 83.8357C65.7444 84.8199 64.5302 85.9915 65.5108 83.9761L66.8184 81.3985C66.8654 81.2578 66.7249 81.1174 66.6318 81.2108C65.9314 81.5858 64.6703 82.242 65.7909 80.9766C66.6783 79.9924 67.3322 79.3363 67.7524 78.9613C67.7993 78.9144 67.7524 78.8205 67.6593 78.8205C66.3047 79.4767 62.8023 80.9297 65.7909 77.3675C69.4337 73.0088 63.7829 76.1491 66.6783 73.7588C70.8814 70.2904 69.9474 70.7123 69.9474 70.7123C69.9474 70.7123 68.0795 71.1808 67.6593 70.8527C67.2387 70.4777 68.1726 68.9781 68.7333 68.4624C69.0135 68.1812 69.4803 68.0405 69.8074 67.9939C70.1341 67.947 70.4612 67.7124 70.5543 67.3844C70.8814 66.6344 71.2551 65.5098 70.3211 66.1659C69.06 67.1032 68.5463 66.4471 70.5543 64.0098C70.7879 63.7756 70.7879 63.4006 70.6013 63.1195L69.8074 61.9007C69.8074 61.9007 69.2936 61.9945 70.928 60.0261C72.5624 58.0573 73.4498 54.6828 73.4498 52.9956C73.4498 51.3083 74.057 46.5277 80.6884 40.5752C87.3194 34.6227 85.7316 34.3415 91.1488 31.7636C96.0989 29.4202 104.178 25.9987 108.054 19.5778C108.941 18.1247 110.015 16.7656 111.277 15.6875C114.219 13.2034 119.542 9.17272 125.006 7.62586C133.132 5.32938 138.175 7.90701 144.667 14.6564C151.158 21.4054 156.855 23.5146 167.689 25.4834C178.523 27.4518 181.746 38.7941 184.688 40.3875C187.21 41.7467 191.459 48.1211 198.931 46.4339C201.173 45.9181 203.134 44.5589 204.395 42.6374C207.29 38.2787 213.081 28.9983 211.867 27.1706C210.279 24.7803 212.474 23.3742 213.128 22.7181C213.735 22.1085 213.688 18.8278 215.51 16.5779C215.976 16.0156 215.976 16.0156 215.976 16.0156C215.976 16.0156 214.622 10.3912 215.696 10.11C216.77 9.82885 218.452 10.5319 219.479 11.188C219.479 11.188 223.682 8.09468 230.547 10.3442C237.411 12.5942 242.362 12.3599 243.856 12.2192C245.397 12.0784 250.441 14.2345 251.048 16.1094C251.655 17.984 251.048 17.1875 251.048 17.1875C251.048 17.1875 253.429 18.8278 253.149 20.1401C252.916 21.4523 252.215 21.7804 252.215 21.7804C252.215 21.7804 253.663 23.3273 253.196 23.8896C252.729 24.4522 250.207 25.0614 248.713 24.9676C247.172 24.8269 244.463 24.7334 243.529 24.5926C242.595 24.4522 237.505 26.3737 236.571 26.1395C235.637 25.9049 231.481 29.2329 230.453 30.264C229.426 31.2951 229.286 32.5135 229.286 32.5135C229.286 32.5135 228.212 42.0282 224.102 46.3869C219.993 50.7457 216.537 60.6822 207.664 65.0879C199.492 69.1185 187.163 69.1185 181.746 68.9312C180.999 68.8843 180.251 69.2124 179.738 69.7278C179.177 70.2904 178.383 71.0404 177.543 71.5088C177.029 71.8369 176.655 72.3057 176.515 72.9149C176.095 74.7899 175.115 78.6332 174.507 79.8517C173.667 81.492 173.9 103.661 173.34 106.38C173.34 106.38 174.974 111.348 173.2 113.832C173.2 113.832 173.947 128.127 175.301 130.705C175.488 131.033 175.628 131.314 175.675 131.689C176.142 133.705 177.683 139.704 178.337 139.704C178.71 139.704 178.944 139.891 179.084 140.126C179.317 140.547 179.691 140.876 180.158 141.016C181.606 141.485 184.641 142.657 185.715 144.813C186.556 146.453 186.556 146.453 186.556 146.453C186.556 146.453 178.43 147.391 174.647 146.781C173.293 146.594 172.593 147.203 171.332 141.11C170.164 135.392 167.783 126.065 167.689 123.956C167.549 121.847 165.681 118.285 165.681 117.347C165.681 116.41 165.821 115.566 165.821 115.566C165.821 115.566 164.981 114.629 164.887 113.926C164.747 113.223 163.953 98.4118 164.047 96.8653C164.187 95.3185 162.179 80.5078 163.206 80.1797C163.206 80.1797 154.38 97.9434 153.633 102.302C152.932 106.661 151.017 112.473 150.457 113.082C149.85 113.691 148.122 115.941 147.749 116.41C146.908 117.394 147.281 117.019 146.441 118.191C145.601 119.363 145.367 139.376 146.067 140.313C146.207 140.501 146.301 140.641 146.347 140.829C146.628 141.719 147.235 142.516 148.122 142.891C150.504 143.969 154.1 145.844 152.886 147.016C151.158 148.703 151.485 148.141 151.485 148.141C151.111 148.469 150.831 148.703 150.27 148.703H147.048C147.048 148.703 137.942 148.562 137.615 147.766C137.335 147.063 137.568 143.922 138.549 142.704C138.969 142.141 139.156 141.438 139.063 140.735C138.829 138.86 138.595 135.205 138.923 130.049C139.483 121.987 140.09 117.863 140.557 116.691C141.024 115.519 140.183 107.552 140.791 107.317C141.397 107.083 147.749 83.6481 149.149 81.492C150.551 79.3832 149.383 79.2424 149.383 79.2424C149.383 79.2424 137.101 80.4143 135.467 79.6174C135.467 79.6174 118.701 82.1016 105.018 71.4619L104.084 70.7589C104.084 70.7589 102.824 72.7745 101.47 73.5242C101.096 73.7118 100.862 74.0399 100.769 74.4618C100.255 76.899 98.3405 85.0542 94.0908 89.0848C93.7175 89.4598 93.4839 89.9286 93.3904 90.4909C93.1569 92.3659 92.503 96.9123 90.5419 99.0683C90.3549 99.2557 90.2618 99.4899 90.2618 99.771C90.0748 102.208 89.1408 113.973 90.3549 116.457C90.4484 116.691 90.5419 116.925 90.5885 117.16C90.9622 119.082 92.503 126.721 94.9782 130.096C97.8268 133.986 98.3874 136.236 99.3214 136.47C99.7882 136.564 99.8352 136.892 99.7882 137.173C99.7416 137.548 99.9283 137.923 100.302 138.064L102.263 138.814C102.263 138.814 106.139 138.814 106.747 141.532C106.747 141.532 109.128 143.079 108.054 143.547C106.98 144.016 97.0798 144.485 96.7061 144.016C96.3325 143.547 86.5724 125.878 85.7316 122.128C85.7316 122.128 80.875 112.52 79.9411 112.426C79.0071 112.285 82.4163 90.0694 81.809 89.3194C81.2018 88.6164 79.801 89.3194 79.1937 89.5536C78.7269 89.7413 74.7574 94.8031 74.4773 95.6C74.1502 96.4434 66.118 111.723 65.6509 116.925C65.184 122.128 64.11 135.767 64.8104 137.782C65.1375 138.673 65.3707 139.657 65.5108 140.407C65.6043 140.782 65.7909 141.11 66.118 141.297C68.0795 142.516 67.1455 142.563 68.2196 143.219C70.5078 144.672 71.0681 143.828 71.5353 144.532C72.0021 145.235 74.0101 145.797 74.2437 147.063C74.4773 148.375 75.925 148.281 72.4692 148.656C71.862 148.703 72.4692 148.656 70.4612 148.843L70.1807 148.89C70.1807 148.89 59.9538 149.172 60.4206 148.797C61.308 148.094 58.4126 151.89 58.8794 136.47C59.3466 121.05 59.4867 109.614 58.179 108.63C56.8714 107.645 65.044 90.3975 66.2115 89.7879C67.5188 89.1317 68.7799 84.8199 68.7799 84.8199Z" fill="#FC8C54"/>
<path d="M939 27C939 27 665.375 37.3087 470.291 85.4167C359.477 112.744 116.978 126.399 0 99.1794C0 116.422 0 124.962 0 124.962V151.551V252H369.026H654.013H939V99.1794V27Z" fill="#FC8C54"/>
</g>
<defs>
<clipPath id="clip0_109_2">
<rect width="939" height="242" fill="white"/>
</clipPath>
</defs>
</svg>
