<svg width="375" height="433" viewBox="0 0 375 433" fill="none" xmlns="http://www.w3.org/2000/svg">
<path d="M225.521 84.6818L202.023 65L175 89.9411H232.981L225.521 84.6818Z" fill="#FFA16C"/>
<path d="M177.935 87.2826L202 65L193.137 90H175L177.935 87.2826Z" fill="#935351"/>
<path d="M145.937 87.2301L170.023 65L195.283 89.9411H143L145.937 87.2301Z" fill="#FFA16C"/>
<path d="M145.937 87.2302L170.023 65L161.152 89.9411H143L145.937 87.2302Z" fill="#935351"/>
<path d="M364.073 87.45L277.718 11L199 87.45H364.073Z" fill="#FFA16C"/>
<path d="M199 87.45L277.718 11L250.637 87.45H199Z" fill="#935351"/>
<path d="M-6.99999 58C-6.99999 58 119.549 67.22 205.571 91.5917C313.622 122.204 388 98.4426 388 98.4426L374.826 186L-6.99999 160.863V120.816V58Z" fill="#B26969"/>
<path d="M378 49.0354C378 49.0354 273.525 46.1785 179.326 91.7997C138.911 111.373 56.1572 120.71 -3 95.0555C-3 111.307 -3 119.356 -3 119.356V144.417V441.5H378V87.0057V49.0354Z" fill="#FC8C54"/>
<path d="M41.6829 71.877C41.6829 71.877 38.9046 74.3384 39.6202 72.4384C39.8307 71.9202 39.957 71.5316 40.1254 71.1861C40.2096 70.9702 39.957 70.7975 39.7886 70.9702C38.9467 71.877 37.8522 72.9566 38.7362 71.0997L39.9149 68.7247C39.957 68.5952 39.8307 68.4657 39.7465 68.552C39.1151 68.8975 37.9785 69.502 38.9888 68.3361C39.7886 67.4293 40.3779 66.8247 40.7568 66.4793C40.7989 66.4361 40.7568 66.3497 40.6726 66.3497C39.4518 66.9543 36.2947 68.2929 38.9888 65.0111C42.2722 60.9952 37.1787 63.8884 39.7886 61.6861C43.5772 58.4906 42.7353 58.8793 42.7353 58.8793C42.7353 58.8793 41.0515 59.3111 40.6726 59.0088C40.2938 58.6634 41.1357 57.2815 41.6408 56.8065C41.8934 56.5474 42.3143 56.4179 42.609 56.3747C42.9036 56.3315 43.1983 56.1156 43.2825 55.8133C43.5772 55.1224 43.9139 54.0861 43.072 54.6906C41.9355 55.5543 41.4724 54.9497 43.2825 52.7042C43.493 52.4883 43.493 52.1429 43.3246 51.8838L42.609 50.7611C42.609 50.7611 42.1459 50.8474 43.6193 49.0338C45.0926 47.2201 45.8924 44.111 45.8924 42.5565C45.8924 41.0019 46.4396 36.5974 52.4171 31.1133C58.3946 25.6292 56.9634 25.3701 61.8464 22.9951C66.3085 20.836 73.591 17.6837 77.0848 11.7678C77.8847 10.4291 78.8528 9.17686 79.9894 8.18367C82.6414 5.89503 87.4402 2.18139 92.3654 0.756383C99.6899 -1.35953 104.236 1.01547 110.087 7.23367C115.939 13.4519 121.074 15.3951 130.84 17.2087C140.606 19.0223 143.511 29.4724 146.163 30.9406C148.436 32.1928 152.267 38.0656 159.002 36.511C161.022 36.036 162.79 34.7837 163.927 33.0133C166.537 28.9974 171.757 20.4473 170.662 18.7632C169.231 16.561 171.209 15.2655 171.799 14.661C172.346 14.0996 172.304 11.0769 173.946 9.00413C174.367 8.48595 174.367 8.48595 174.367 8.48595C174.367 8.48595 173.146 3.30412 174.114 3.04503C175.082 2.78593 176.598 3.43366 177.524 4.03821C177.524 4.03821 181.312 1.1882 187.5 3.26093C193.688 5.33367 198.15 5.11776 199.497 4.98821C200.886 4.85867 205.433 6.84503 205.98 8.57231C206.527 10.2996 205.98 9.5655 205.98 9.5655C205.98 9.5655 208.127 11.0769 207.874 12.286C207.664 13.4951 207.032 13.7973 207.032 13.7973C207.032 13.7973 208.337 15.2223 207.916 15.7405C207.495 16.2587 205.222 16.8201 203.875 16.7337C202.486 16.6042 200.045 16.5178 199.203 16.3882C198.361 16.2587 193.772 18.0292 192.931 17.8132C192.089 17.5973 188.342 20.6633 187.416 21.6133C186.49 22.5633 186.364 23.686 186.364 23.686C186.364 23.686 185.396 32.4519 181.691 36.4678C177.987 40.4838 174.872 49.6383 166.874 53.6974C159.507 57.4111 148.394 57.4111 143.511 57.2384C142.837 57.1952 142.164 57.4974 141.701 57.9724C141.196 58.4906 140.48 59.1815 139.722 59.6134C139.259 59.9156 138.923 60.3474 138.796 60.9088C138.417 62.6361 137.533 66.177 136.986 67.2997C136.228 68.8111 136.439 89.2362 135.934 91.7407C135.934 91.7407 137.407 96.318 135.807 98.6066C135.807 98.6066 136.481 111.777 137.702 114.152C137.87 114.454 137.996 114.714 138.039 115.059C138.459 116.916 139.849 122.443 140.438 122.443C140.775 122.443 140.985 122.616 141.111 122.832C141.322 123.22 141.659 123.523 142.08 123.652C143.385 124.084 146.121 125.164 147.089 127.15C147.847 128.661 147.847 128.661 147.847 128.661C147.847 128.661 140.522 129.525 137.112 128.964C135.892 128.791 135.26 129.352 134.124 123.739C133.071 118.47 130.924 109.877 130.84 107.934C130.714 105.991 129.03 102.709 129.03 101.845C129.03 100.982 129.156 100.204 129.156 100.204C129.156 100.204 128.399 99.3407 128.315 98.693C128.188 98.0453 127.473 84.3998 127.557 82.9748C127.683 81.5498 125.873 67.9043 126.799 67.602C126.799 67.602 118.843 83.968 118.17 87.9839C117.538 91.9998 115.812 97.3544 115.307 97.9157C114.76 98.4771 113.202 100.55 112.866 100.982C112.108 101.888 112.445 101.543 111.687 102.623C110.929 103.702 110.719 122.141 111.35 123.004C111.477 123.177 111.561 123.307 111.603 123.479C111.855 124.3 112.403 125.034 113.202 125.379C115.349 126.373 118.591 128.1 117.496 129.179C115.939 130.734 116.233 130.216 116.233 130.216C115.897 130.518 115.644 130.734 115.139 130.734H112.234C112.234 130.734 104.026 130.604 103.731 129.87C103.478 129.223 103.689 126.329 104.573 125.207C104.952 124.689 105.12 124.041 105.036 123.393C104.826 121.666 104.615 118.298 104.91 113.548C105.415 106.12 105.962 102.32 106.383 101.241C106.804 100.161 106.046 92.8203 106.594 92.6044C107.141 92.3884 112.866 70.7975 114.129 68.8111C115.391 66.8679 114.339 66.7384 114.339 66.7384C114.339 66.7384 103.268 67.8179 101.795 67.0838C101.795 67.0838 86.6825 69.3725 74.3487 59.5702L73.5068 58.9224C73.5068 58.9224 72.3702 60.7793 71.1494 61.4702C70.8127 61.6429 70.6022 61.9452 70.518 62.3338C70.055 64.5793 68.3291 72.0929 64.4984 75.8066C64.1617 76.152 63.9512 76.5839 63.867 77.102C63.6565 78.8293 63.0672 83.018 61.2992 85.0043C61.1308 85.1771 61.0466 85.393 61.0466 85.6521C60.8782 87.8975 60.0363 98.7362 61.1308 101.025C61.215 101.241 61.2992 101.457 61.3413 101.673C61.6781 103.443 63.0672 110.482 65.2982 113.591C67.866 117.175 68.3712 119.248 69.2131 119.464C69.634 119.55 69.6761 119.852 69.634 120.111C69.5919 120.457 69.7603 120.802 70.0971 120.932L71.8651 121.623C71.8651 121.623 75.359 121.623 75.9062 124.127C75.9062 124.127 78.053 125.552 77.0848 125.984C76.1167 126.416 67.1925 126.848 66.8557 126.416C66.519 125.984 57.7211 109.704 56.9634 106.25C56.9634 106.25 52.5855 97.3975 51.7436 97.3112C50.9017 97.1816 53.9747 76.7134 53.4274 76.0225C52.8802 75.3748 51.6173 76.0225 51.0701 76.2384C50.6491 76.4111 47.0711 81.0748 46.8185 81.8089C46.5238 82.5861 39.2835 96.6635 38.8625 101.457C38.4416 106.25 37.4734 118.816 38.1048 120.673C38.3995 121.493 38.6099 122.4 38.7362 123.091C38.8204 123.436 38.9888 123.739 39.2835 123.911C41.0515 125.034 40.2096 125.077 41.1777 125.682C43.2404 127.02 43.7455 126.243 44.1665 126.891C44.5874 127.539 46.3975 128.057 46.608 129.223C46.8185 130.432 48.1234 130.345 45.0084 130.691C44.4612 130.734 45.0084 130.691 43.1983 130.864L42.9457 130.907C42.9457 130.907 33.7269 131.166 34.1479 130.82C34.9477 130.173 32.3378 133.67 32.7587 119.464C33.1797 105.257 33.306 94.7203 32.1273 93.8134C30.9486 92.9066 38.3153 77.0157 39.3677 76.4543C40.5463 75.8498 41.6829 71.877 41.6829 71.877Z" fill="#FC8C54"/>
</svg>
