<svg width="939" height="276" viewBox="0 0 939 276" fill="none" xmlns="http://www.w3.org/2000/svg">
<g clip-path="url(#clip0_111_2)">
<rect y="120.864" width="939" height="154.815" fill="black"/>
<path d="M0 147.94V86.8793H21.7143C35.4072 86.8793 43.4285 87.3137 43.4285 88.0535C43.4285 88.6993 46.3336 89.2277 49.8841 89.2277C53.4347 89.2277 56.3397 88.6993 56.3397 88.0535C56.3397 87.4077 57.3961 86.8793 58.6872 86.8793C59.9783 86.8793 61.0347 87.4077 61.0347 88.0535C61.0347 88.6993 63.9397 89.2277 67.4903 89.2277C71.0409 89.2277 73.9459 88.6993 73.9459 88.0535C73.9459 87.4077 76.3227 86.8793 79.2277 86.8793C82.1328 86.8793 84.5096 87.4077 84.5096 88.0535C84.5096 88.805 95.4641 89.2277 115.027 89.2277C134.589 89.2277 145.544 89.6505 145.544 90.402C145.544 91.1535 156.113 91.5762 174.893 91.5762C203.45 91.5762 204.236 91.5175 204.236 89.2277C204.236 87.9361 204.764 86.8793 205.41 86.8793C206.079 86.8793 206.584 83.1687 206.584 78.0725C206.584 72.988 206.079 69.2657 205.41 69.2657C204.764 69.2657 204.236 67.4222 204.236 65.1559C204.236 62.9013 204.764 61.0461 205.41 61.0461C206.055 61.0461 206.584 59.5782 206.584 57.7816C206.584 55.8676 207.546 53.8245 208.931 52.8264C210.222 51.8987 211.279 50.5014 211.279 49.7381C211.279 48.9631 211.924 48.106 212.734 47.8476C213.767 47.4954 213.591 46.7556 212.1 45.2643C210.093 43.2681 209.917 43.2799 207.863 45.6518C206.689 47.0139 204.06 48.4582 202.041 48.8692C199.119 49.4446 198.367 50.1961 198.367 52.4741C198.367 56.1495 195.797 58.6976 192.111 58.6976C189.048 58.6976 187.804 56.7953 187.804 52.1453C187.804 50.5836 187.405 49.3037 186.923 49.2919C186.43 49.2802 185.268 48.7752 184.318 48.1764C182.874 47.2722 183.038 46.7086 185.339 44.7124C188.25 42.176 188.003 38.7355 184.905 38.7355C183.883 38.7355 183.109 37.714 183.109 36.3871C183.109 35.0954 183.637 34.0386 184.283 34.0386C184.928 34.0386 185.456 31.6666 185.456 28.7545C185.456 25.8542 185.984 23.4704 186.63 23.4704C187.276 23.4704 187.804 22.3784 187.804 21.0398C187.804 18.8792 197.898 14.9572 196.079 16.2137C191.536 19.3724 191.83 25.8189 189.564 25.8189C188.578 25.8189 187.804 26.864 187.804 28.1674C187.804 29.4708 188.578 30.5159 189.564 30.5159C190.527 30.5159 191.325 31.0443 191.325 31.6901C191.325 32.3359 193.238 32.8643 195.586 32.8643C201.114 32.8643 204.236 29.4121 204.236 23.2943C204.236 19.3371 203.884 18.7735 201.478 18.7735C199.964 18.7735 197.464 17.6932 195.938 16.3663C193.649 14.3819 193.461 13.7595 194.846 12.9023C196.231 12.0451 196.079 11.4697 193.919 9.60271C190.691 6.79628 190.574 3.90765 193.672 2.92129C194.964 2.51031 196.02 1.68834 196.02 1.08948C196.02 -0.660131 205.398 -0.178717 207.241 1.65309C208.52 2.94476 208.567 3.47316 207.452 4.00157C206.29 4.54172 206.29 4.82351 207.464 5.37541C208.262 5.75116 208.931 7.06631 208.931 8.311C208.931 9.7788 209.741 10.5538 211.279 10.5538C212.57 10.5538 213.626 11.0822 213.626 11.7281C213.626 12.3739 214.647 12.9023 215.891 12.9023C217.136 12.9023 218.497 13.9591 218.896 15.2508C219.307 16.5424 221.056 17.9515 222.781 18.386C226.42 19.3019 228.885 21.4507 228.885 23.717C228.885 24.5859 229.941 26.0655 231.232 26.9932C232.523 27.9326 233.58 29.6234 233.58 30.7742C233.58 31.9249 234.366 32.8643 235.34 32.8643C236.303 32.8643 237.101 32.3359 237.101 31.6901C237.101 31.0443 239.214 30.5159 241.796 30.5159C244.378 30.5159 246.491 29.9875 246.491 29.3416C246.491 28.6958 247.277 28.1674 248.252 28.1674C249.214 28.1674 250.012 27.639 250.012 26.9932C250.012 26.3473 251.597 25.8189 253.533 25.8189C255.47 25.8189 257.055 25.2905 257.055 24.6447C257.055 23.9989 258.111 23.4704 259.402 23.4704C260.693 23.4704 261.75 22.942 261.75 22.2962C261.75 21.6504 262.536 21.122 263.51 21.122C264.473 21.122 265.271 20.5936 265.271 19.9477C265.271 19.3019 266.327 18.7735 267.618 18.7735C268.921 18.7735 269.966 17.9985 269.966 17.0121C269.966 16.0493 270.494 15.2508 271.14 15.2508C271.785 15.2508 272.313 14.4405 272.313 13.4542C272.313 11.0822 279.919 3.50841 282.302 3.50841C285.189 3.50841 289.92 8.94508 289.92 12.2682C289.92 14.6754 290.483 15.2508 292.854 15.2508C294.462 15.2508 295.788 15.7087 295.788 16.2606C295.788 16.8125 299.051 17.611 303.054 18.0337C307.056 18.4447 310.695 19.3841 311.141 20.1004C312.103 21.6739 329.979 21.6034 330.942 20.0299C331.294 19.4546 333.571 18.6208 335.989 18.1629C338.407 17.7167 340.391 16.8712 340.391 16.2959C340.391 15.7205 341.588 15.2508 343.055 15.2508C344.534 15.2508 346.494 14.194 347.433 12.9023C348.407 11.5519 350.461 10.5538 352.316 10.5538C354.065 10.5538 355.837 10.0254 356.236 9.3796C356.635 8.73377 358.513 8.20536 360.403 8.20536C363.314 8.20536 363.865 7.73566 363.865 5.26977C363.865 2.49856 364.218 2.33417 370.321 2.33417C376.741 2.33417 376.777 2.35766 376.777 5.93909C376.777 9.86104 379.042 12.9023 381.965 12.9023C382.997 12.9023 383.819 13.8887 383.819 15.1216C383.819 17.3644 386.777 18.7265 391.742 18.7617C393.186 18.7735 394.383 19.3019 394.383 19.9477C394.383 20.5936 395.322 21.122 396.46 21.122C397.611 21.122 399.312 22.1788 400.251 23.4704C401.343 24.997 403.28 25.8189 405.792 25.8189C407.904 25.8189 409.641 26.3473 409.641 26.9932C409.641 27.639 410.698 28.1674 411.989 28.1674C413.28 28.1674 414.336 28.6958 414.336 29.3416C414.336 31.5257 419.325 30.5394 421.684 27.8738C423.28 26.089 424.208 25.7015 424.56 26.6996C425.182 28.4375 433.116 28.7075 433.116 26.9932C433.116 26.3473 433.926 25.8189 434.912 25.8189C436.614 25.8189 444.854 18.4916 444.854 16.9651C444.854 15.0863 448.575 12.9023 451.802 12.9023C454.302 12.9023 455.417 12.3387 455.417 11.0587C455.417 8.6633 458.246 5.85688 460.664 5.85688C463.868 5.85688 468.329 11.2936 468.329 15.2038C468.329 17.1647 468.857 18.7735 469.502 18.7735C470.148 18.7735 470.676 20.6993 470.676 23.0477C470.676 27.9561 473.118 30.4219 478.012 30.4806C479.784 30.5041 481.24 31.0443 481.24 31.6901C481.24 33.4045 487.977 33.1344 488.681 31.3966C489.127 30.2928 489.585 30.3632 490.512 31.6901C491.357 32.8878 491.768 32.9818 491.78 31.9837C491.792 31.1852 492.86 30.5159 494.151 30.5159C495.442 30.5159 496.499 31.0443 496.499 31.6901C496.499 32.3359 498.611 32.8643 501.193 32.8643C503.776 32.8643 505.888 32.3359 505.888 31.6901C505.888 31.0443 508.67 30.5159 512.074 30.5159C516.933 30.5159 518.647 30.011 519.973 28.1674C521.065 26.6409 523.002 25.8189 525.513 25.8189C528.283 25.8189 529.363 25.2905 529.363 23.9049C529.363 19.4311 537.18 16.1784 542.756 18.3155C544.798 19.0905 545.408 25.8189 543.448 25.8189C542.803 25.8189 542.275 27.4041 542.275 29.3416C542.275 31.2791 542.721 32.8643 543.26 32.8643C544.868 32.8643 549.317 37.1268 549.317 38.6651C549.317 39.4401 549.974 40.767 550.784 41.6124C551.582 42.4579 553.026 44.2662 553.977 45.6401C554.927 47.0139 556.641 48.1294 557.791 48.1294C558.942 48.1294 559.881 48.9279 559.881 49.8908C559.881 50.8654 560.82 51.6522 561.958 51.6522C563.108 51.6522 564.81 52.709 565.749 54.0006C566.677 55.2923 567.886 56.3491 568.437 56.3491C570.198 56.3491 572.792 53.0612 572.792 50.8184C572.792 49.6324 573.848 47.8946 575.139 46.9552C576.43 46.0276 577.487 44.3249 577.487 43.1741C577.487 42.0234 578.015 41.084 578.661 41.084C579.318 41.084 579.834 37.7609 579.834 33.4515C579.834 29.1538 580.339 25.8189 581.008 25.8189C581.654 25.8189 582.182 23.447 582.182 20.5349C582.182 16.6246 582.628 15.2508 583.942 15.2508C584.905 15.2508 585.703 14.7224 585.703 14.0765C585.703 13.4307 587.288 12.9023 589.224 12.9023C591.161 12.9023 592.746 13.4307 592.746 14.0765C592.746 14.7224 593.743 15.2508 594.964 15.2508C597.288 15.2508 598.614 17.4114 598.614 21.2159C598.614 22.6015 599.424 23.4704 600.692 23.4704C601.842 23.4704 603.544 24.5273 604.483 25.8189C605.41 27.1106 607.112 28.1674 608.262 28.1674C609.413 28.1674 610.352 28.6958 610.352 29.3416C610.352 29.9875 611.138 30.5159 612.112 30.5159C613.075 30.5159 613.873 31.0325 613.873 31.6549C613.873 32.2772 616.514 33.1344 619.742 33.5689C622.969 33.9916 625.61 34.8018 625.61 35.3655C625.61 35.9291 626.397 36.3871 627.371 36.3871C628.333 36.3871 629.132 36.9155 629.132 37.5613C629.132 38.2189 632.23 38.7355 636.092 38.7355C641.89 38.7355 643.17 38.3715 643.756 36.5162C644.202 35.1189 646.022 33.9916 648.663 33.4984C650.975 33.0639 653.968 31.6901 655.306 30.4454C656.644 29.189 658.698 28.1674 659.86 28.1674C661.034 28.1674 661.996 27.639 661.996 26.9932C661.996 26.3473 664.637 25.8189 667.865 25.8189C671.093 25.8189 673.734 26.3473 673.734 26.9932C673.734 27.639 675.048 28.1674 676.668 28.1674C678.276 28.1674 679.603 28.6958 679.603 29.3416C679.603 29.9875 680.659 30.5159 681.95 30.5159C683.241 30.5159 684.298 31.009 684.298 31.6079C684.298 32.2068 687.197 33.064 690.753 33.5102C694.298 33.9446 697.209 34.7784 697.209 35.3537C697.209 35.9174 698.793 36.3871 700.73 36.3871C702.667 36.3871 704.251 36.9155 704.251 37.5613C704.251 38.2071 706.094 38.7355 708.359 38.7355C712.374 38.7355 712.467 38.6416 712.467 33.9564C712.467 28.9424 714.486 25.8189 717.749 25.8189C720.895 25.8189 723.031 28.8954 723.031 33.4515C723.031 37.9723 725.144 41.084 728.219 41.084C729.24 41.084 730.074 41.9177 730.074 42.9276C730.074 43.9492 730.907 45.6166 731.94 46.6499C733.524 48.2351 733.959 48.2586 734.851 46.8495C735.426 45.9453 735.907 43.7495 735.919 41.9647C735.931 39.17 736.4 38.7355 739.464 38.7355C741.4 38.7355 742.985 39.2639 742.985 39.9098C742.985 40.5556 744.041 41.084 745.332 41.084C746.623 41.084 747.68 40.5556 747.68 39.9098C747.68 39.2639 748.466 38.7355 749.44 38.7355C750.403 38.7355 751.201 38.2071 751.201 37.5613C751.201 36.9155 752.786 36.3871 754.722 36.3871C756.659 36.3871 758.243 35.9174 758.243 35.342C758.243 34.7783 760.086 33.9564 762.352 33.5337C764.605 33.1109 766.46 32.2537 766.46 31.6431C766.46 31.0207 767.516 30.5159 768.807 30.5159C770.098 30.5159 771.155 29.9875 771.155 29.3416C771.155 28.6958 772.211 28.1674 773.502 28.1674C774.793 28.1674 775.85 27.639 775.85 26.9932C775.85 26.3473 776.378 25.8189 777.023 25.8189C777.669 25.8189 780.345 24.7973 780.345 26.089C780.345 27.6625 777.411 30.5159 775.85 30.5159C774.558 30.5159 773.502 30.9738 773.502 31.5375C773.502 32.1011 771.26 32.8526 768.537 33.2284C765.802 33.5924 763.384 34.4496 763.15 35.1424C762.927 35.8234 761.729 36.3871 760.485 36.3871C759.253 36.3871 758.243 36.9155 758.243 37.5613C758.243 38.2071 757.187 38.7355 755.896 38.7355C754.605 38.7355 753.548 39.2639 753.548 39.9098C753.548 40.5556 752.75 41.084 751.788 41.084C750.814 41.084 750.027 41.6124 750.027 42.2583C750.027 42.9041 749.194 43.4325 748.173 43.4325C745.767 43.4325 742.985 46.2741 742.985 48.7166C742.985 51.112 740.203 54.0006 737.902 54.0006C735.942 54.0006 734.769 56.4548 734.769 60.5529C734.769 62.279 735.449 63.3945 736.494 63.3945C738.63 63.3945 753.548 78.3895 753.548 80.5266C753.548 80.9611 754.734 82.382 756.189 83.6736C757.973 85.2706 758.349 86.1982 757.363 86.5505C756.483 86.8675 755.896 89.1807 755.896 92.269C755.896 95.1224 755.368 97.4474 754.722 97.4474C754.077 97.4474 753.548 99.0326 753.548 100.97C753.548 102.908 753.055 104.493 752.445 104.493C751.846 104.493 751.025 105.526 750.626 106.783C750.227 108.039 748.877 109.401 747.609 109.8C745.297 110.54 744.335 115.061 746.506 115.061C747.152 115.061 747.68 116.423 747.68 118.079C747.68 122.905 750.227 124.455 758.15 124.455C762.129 124.455 765.286 123.938 765.286 123.281C765.286 122.635 766.87 122.106 768.807 122.106C770.744 122.106 772.328 122.564 772.328 123.104C772.328 123.656 779.852 124.478 789.054 124.925C798.245 125.382 805.956 126.251 806.167 126.862C806.379 127.484 810.733 127.978 815.851 127.978C821.262 127.978 825.147 128.471 825.147 129.152C825.147 129.868 830.429 130.326 838.645 130.326C846.861 130.326 852.143 130.784 852.143 131.5C852.143 132.217 857.225 132.675 865.054 132.675C872.871 132.675 877.965 133.144 877.965 133.849C877.965 134.495 880.864 135.023 884.421 135.023C887.966 135.023 890.877 135.551 890.877 136.197C890.877 136.925 897.133 137.371 907.309 137.371C917.474 137.371 923.741 137.818 923.741 138.546C923.741 139.215 927.063 139.72 931.371 139.72H939V174.36V209H469.502H0.00469688L0 147.94ZM724.834 119.229C727.475 116.587 727.721 115.437 727.721 105.726C727.721 99.4201 727.24 95.0989 726.548 95.0989C725.902 95.0989 725.374 94.5353 725.374 93.8425C725.374 92.633 722.533 89.2277 721.524 89.2277C721.242 89.2277 720.691 93.5842 720.28 98.9152C719.869 104.235 718.989 108.779 718.343 108.99C716.653 109.554 716.864 118.361 718.625 120.357C720.667 122.682 721.548 122.517 724.834 119.229ZM710.115 110.951C710.115 105.867 710.608 102.144 711.289 102.144C711.935 102.144 712.463 99.7724 712.463 96.8603C712.463 93.9599 711.935 91.5762 711.289 91.5762C710.643 91.5762 710.115 88.9342 710.115 85.705C710.115 82.4759 709.587 79.8338 708.942 79.8338C708.296 79.8338 707.768 77.685 707.768 75.0547C707.768 70.4399 705.761 66.9172 703.155 66.9172C702.462 66.9172 701.899 66.3888 701.899 65.743C701.899 65.0972 700.854 64.5688 699.575 64.5688C698.307 64.5688 695.537 62.7135 693.413 60.4472C679.492 45.5461 674.152 41.084 670.243 41.084C668.283 41.084 666.687 41.6124 666.687 42.2583C666.687 42.9745 661.205 43.4325 652.602 43.4325C639.292 43.4325 638.517 43.5617 638.517 45.781C638.517 47.0726 639.045 48.1294 639.691 48.1294C640.336 48.1294 640.864 48.9279 640.864 49.8908C640.864 50.8654 640.336 51.6522 639.691 51.6522C639.045 51.6522 638.517 52.709 638.517 54.0006C638.517 55.7385 637.73 56.3491 635.489 56.3491C632.061 56.3491 629.127 53.9184 629.127 51.065C629.127 49.3506 628.927 49.3389 627.366 50.9006C626.392 51.8635 625.606 53.2843 625.606 54.0358C625.606 54.7873 624.021 56.8892 622.084 58.6976C620.148 60.5059 618.563 62.5725 618.563 63.2771C618.563 63.9933 618.035 64.5688 617.389 64.5688C616.744 64.5688 616.216 67.2108 616.216 70.44C616.216 73.6691 616.744 76.3111 617.389 76.3111C618.035 76.3111 618.563 76.9922 618.563 77.8141C618.563 78.6478 619.62 80.0804 620.911 81.0081C622.824 82.3937 623.258 84.0493 623.258 90.0732C623.258 94.2065 623.775 97.4474 624.432 97.4474C625.077 97.4474 625.606 100.383 625.606 103.976V110.493L644.609 110.235C658.212 110.059 663.752 110.376 664.069 111.35C664.327 112.102 666.593 112.713 669.128 112.713C671.652 112.713 673.729 113.241 673.729 113.887C673.729 114.533 675.044 115.061 676.664 115.061C678.272 115.061 679.598 115.589 679.598 116.235C679.598 116.905 682.92 117.409 687.227 117.409C691.523 117.409 694.857 117.926 694.857 118.584C694.857 119.253 698.178 119.758 702.486 119.758H710.115V110.951ZM617.401 109.389C616.744 109.178 616.216 107.98 616.216 106.747C616.216 105.514 615.688 104.493 615.042 104.493C614.396 104.493 613.927 104.105 613.997 103.612C614.079 103.131 614.079 101.017 613.997 98.9152C613.798 93.2084 610.159 93.9247 603.222 101.052C595.217 109.272 595.511 110.364 605.652 110.364C610.382 110.364 613.868 110.869 613.868 111.55C613.868 112.255 614.831 112.137 616.227 111.256C617.519 110.446 618.047 109.612 617.401 109.389ZM582.705 105.761C583.069 105.174 582.564 103.882 581.59 102.908C579.478 100.794 579.208 91.9755 581.238 91.3062C582.177 90.9891 582.823 86.7971 583.14 78.871C583.398 72.2952 584.09 66.9172 584.654 66.9172C585.229 66.9172 585.698 64.0169 585.698 60.4589C585.698 55.5036 585.288 54.0006 583.938 54.0006C582.964 54.0006 582.177 54.529 582.177 55.1749C582.177 55.8207 581.367 56.3491 580.37 56.3491C579.384 56.3491 576.719 58.2044 574.466 60.4589C572.2 62.7252 569.595 64.5688 568.679 64.5688C567.752 64.5688 565.146 62.7252 562.881 60.4589C560.627 58.2044 558.08 56.3491 557.235 56.3491C556.39 56.3491 554.923 55.2336 553.972 53.8597C550.92 49.4681 549.195 48.1295 546.577 48.1529C545.181 48.1647 544.559 48.5522 545.204 49.0336C546.46 49.9613 546.859 51.2881 547.235 55.8207C547.364 57.4059 547.88 58.6976 548.385 58.6976C550.392 58.6976 549.16 63.2888 546.965 63.9816C544.547 64.7449 543.678 66.9172 545.791 66.9172C546.437 66.9172 546.965 68.5025 546.965 70.44C546.965 72.3774 547.493 73.9627 548.139 73.9627C548.784 73.9627 549.312 74.9842 549.312 76.2172C549.312 77.4501 549.84 78.6479 550.498 78.871C551.155 79.0823 552.024 82.0297 552.423 85.4232C552.822 88.805 553.549 91.5762 554.031 91.5762C554.512 91.5762 555.158 92.9031 555.463 94.5118C555.897 96.7898 555.533 97.4474 553.843 97.4474C552.634 97.4474 551.66 97.9758 551.66 98.6216C551.66 99.2675 550.075 99.7959 548.139 99.7959C544.077 99.7959 543.303 102.661 546.671 105.209C549.078 107.041 581.602 107.546 582.705 105.761ZM473.958 103.084C475.049 101.992 475.366 101.992 475.366 103.084C475.366 104.082 478.512 104.493 485.989 104.493C492.785 104.493 496.365 104.07 495.907 103.319C495.437 102.567 499.804 102.144 508.161 102.144H521.142V95.6861C521.142 92.1399 520.614 89.2277 519.969 89.2277C519.323 89.2277 518.795 87.1141 518.795 84.5308C518.795 81.9475 518.267 79.8338 517.621 79.8338C516.976 79.8338 516.447 77.9903 516.447 75.724C516.447 73.4695 516.976 71.6142 517.621 71.6142C518.279 71.6142 518.795 68.2911 518.795 63.9816C518.795 59.6839 519.3 56.3491 519.969 56.3491C521.87 56.3491 521.424 40.0272 519.464 38.0662C517.469 36.0818 499.381 35.6003 500.602 37.5613C501.024 38.2541 499.827 38.7355 497.726 38.7355C495.754 38.7355 494.146 39.2639 494.146 39.9098C494.146 40.5556 492.82 41.084 491.212 41.084C489.592 41.084 488.278 41.6124 488.278 42.2583C488.278 42.9041 486.693 43.4325 484.756 43.4325C482.82 43.4325 481.235 43.9609 481.235 44.6067C481.235 45.2526 479.381 45.781 477.127 45.781C474.862 45.781 473.019 45.2526 473.019 44.6067C473.019 43.9609 470.941 43.4325 468.394 43.4325C462.878 43.4325 462.925 43.315 462.537 59.4021C462.314 68.9134 462.62 71.6259 464.11 73.1172C465.131 74.1388 465.976 75.7592 465.976 76.7221C465.976 77.685 466.634 78.73 467.444 79.0588C468.617 79.5285 468.617 79.6694 467.444 79.7399C466.634 79.7986 465.976 80.8907 465.976 82.1823C465.976 83.474 465.507 84.5308 464.955 84.5308C464.392 84.5308 463.641 86.7266 463.277 89.4038C462.925 92.0811 462.115 94.5822 461.481 94.9815C460.859 95.369 460.155 97.0129 459.932 98.6216C459.544 101.358 459.896 101.581 465.096 101.921C468.16 102.109 470.671 102.778 470.671 103.389C470.671 104.916 472.268 104.775 473.958 103.084ZM536.401 103.319C536.401 102.673 535.873 102.144 535.227 102.144C534.582 102.144 534.054 102.673 534.054 103.319C534.054 103.964 534.582 104.493 535.227 104.493C535.873 104.493 536.401 103.964 536.401 103.319ZM410.306 100.465C411.221 99.5493 411.984 97.694 411.984 96.3554C411.984 94.7114 412.735 93.9247 414.332 93.9247C415.623 93.9247 416.679 93.3963 416.679 92.7505C416.679 92.1046 417.876 91.5762 419.344 91.5762C420.823 91.5762 422.783 90.5194 423.722 89.2277C424.649 87.9361 426.351 86.8793 427.501 86.8793C428.651 86.8793 429.59 86.3509 429.59 85.705C429.59 85.0592 430.682 84.5308 432.02 84.5308C435.13 84.5308 437.807 81.8653 437.807 78.7418C437.807 77.4032 438.335 76.3111 438.98 76.3111C439.638 76.3111 440.154 72.988 440.154 68.6786C440.154 64.3809 439.638 61.0461 438.98 61.0461C438.335 61.0461 437.807 58.2631 437.807 54.846C437.807 49.9964 438.311 48.2821 440.154 46.9552C442.572 45.2173 443.487 38.7355 441.328 38.7355C440.682 38.7355 440.154 40.3208 440.154 42.2583C440.154 45.8397 438.558 46.9904 437.314 44.3132C436.762 43.1389 436.492 43.1389 435.94 44.3132C435.565 45.1234 434.731 45.781 434.098 45.781C432.196 45.781 429.59 48.9866 429.59 51.3116C429.59 52.5093 428.534 54.2472 427.243 55.1749C425.952 56.1143 424.895 57.582 424.895 58.451C424.895 60.6233 421.949 63.3945 419.66 63.3945C418.616 63.3945 417.466 64.193 417.102 65.1559C416.726 66.1305 415.951 66.9172 415.376 66.9172C414.801 66.9172 414.332 66.1305 414.332 65.1559C414.332 64.193 414.778 63.3945 415.341 63.3945C415.893 63.3945 416.656 60.365 417.043 56.6662C417.419 52.9556 418.287 49.7499 418.968 49.5268C419.637 49.2919 420.2 48.3643 420.2 47.4484C420.2 46.5325 420.729 45.781 421.374 45.781C423.147 45.781 422.771 39.9685 420.869 38.0662C419.942 37.1503 418.322 36.3871 417.278 36.3871C416.221 36.3871 415.646 35.9291 415.987 35.3772C416.327 34.8253 413.604 34.0503 409.918 33.6746C406.233 33.2871 403.029 32.4299 402.806 31.7488C402.583 31.0678 400.329 30.5159 397.794 30.5159C395.27 30.5159 393.204 29.9875 393.204 29.3416C393.204 28.6958 391.62 28.1674 389.683 28.1674C387.746 28.1674 386.162 27.639 386.162 26.9932C386.162 26.3473 384.049 25.8189 381.467 25.8189C377.758 25.8189 376.772 26.2652 376.772 27.8973C376.772 29.0246 375.446 30.9503 373.838 32.1715C369.917 35.1071 370.129 36.3871 374.53 36.3871C377.171 36.3871 378.333 37.0329 378.779 38.7355C379.108 40.0272 379.859 41.084 380.422 41.084C380.997 41.084 381.467 43.4912 381.467 46.4385C381.467 49.7147 381.913 51.5112 382.641 51.065C383.368 50.6188 383.814 52.8147 383.814 56.8658C383.814 60.4589 383.286 63.3945 382.641 63.3945C381.995 63.3945 381.467 63.9582 381.467 64.651C381.467 66.8703 378.192 69.2657 375.164 69.2657C373.262 69.2657 371.971 70.0877 371.49 71.6142C371.079 72.9058 370.246 73.9627 369.647 73.9627C368.168 73.9627 368.239 84.202 369.729 85.1179C370.375 85.5172 370.903 88.9812 370.903 92.8209V99.7959H387.922C398.486 99.7959 404.942 100.242 404.942 100.97C404.942 102.72 408.381 102.391 410.306 100.465ZM453.065 96.8603C453.065 93.9599 453.593 91.5762 454.239 91.5762C454.885 91.5762 455.413 89.991 455.413 88.0535C455.413 86.116 455.941 84.5308 456.586 84.5308C458.84 84.5308 457.737 79.7046 454.802 76.7808C452.349 74.3149 451.598 74.0918 450.295 75.3952C449.427 76.2524 448.347 79.0001 447.877 81.5012C446.938 86.48 444.849 89.2277 441.997 89.2277C440.976 89.2277 440.154 89.7562 440.154 90.402C440.154 91.0478 438.57 91.5762 436.633 91.5762C434.696 91.5762 433.112 92.0459 433.112 92.6213C433.112 93.1967 430.729 94.0187 427.83 94.4531C424.919 94.8876 422.548 95.6861 422.548 96.2145C422.548 96.7429 421.492 97.4474 420.2 97.7879C418.909 98.1284 417.853 99.244 417.853 100.277C417.853 101.909 420.13 102.144 435.459 102.144H453.065V96.8603ZM344.576 95.7683C345.492 94.8524 346.255 93.5255 346.255 92.8327C346.255 92.1399 346.783 91.5762 347.428 91.5762C348.074 91.5762 348.602 89.991 348.602 88.0535C348.602 86.116 349.13 84.5308 349.776 84.5308C350.421 84.5308 350.95 83.5092 350.95 82.2645C350.95 81.0198 351.971 79.6695 353.227 79.2702C354.882 78.7418 355.738 77.0274 356.325 73.0233C356.771 69.9938 357.71 67.1403 358.415 66.6941C360.868 65.1089 358.403 64.1108 350.656 63.5472C349.518 63.465 348.602 62.5843 348.602 61.5979C348.602 60.6115 347.405 59.3199 345.961 58.7328C344.506 58.1574 343.977 57.6408 344.787 57.6055C345.586 57.5586 346.255 56.5018 346.255 55.2453C346.255 53.9889 346.783 52.6385 347.428 52.2393C348.074 51.84 348.602 49.1745 348.602 46.2976C348.602 43.4325 349.13 41.084 349.776 41.084C350.421 41.084 350.95 39.534 350.95 37.6435C350.95 35.2363 350.245 33.9799 348.602 33.4515C346.947 32.9348 346.255 31.6784 346.255 29.2712C346.255 26.3708 345.773 25.8189 343.32 25.8189C341.7 25.8189 340.386 26.3473 340.386 26.9932C340.386 27.639 339.329 28.1674 338.038 28.1674C336.747 28.1674 335.691 28.6958 335.691 29.3416C335.691 29.9875 334.634 30.5159 333.343 30.5159C332.052 30.5159 331.055 30.1284 331.125 29.6352C331.536 27.0401 330.749 25.8189 328.648 25.8189C327.357 25.8189 326.301 26.3473 326.301 26.9932C326.301 27.639 324.446 28.1674 322.193 28.1674C318.871 28.1674 318.085 28.6253 318.085 30.4924C318.085 33.1461 314.751 34.3439 308.601 33.9094C306.394 33.745 300.748 33.7098 296.077 33.8272C287.743 34.0386 287.567 34.109 287.567 37.0916C287.567 38.9821 288.929 41.4245 291.136 43.4794C293.882 46.051 294.856 48.1764 295.396 52.7559C295.784 56.0203 296.558 58.6976 297.11 58.6976C297.673 58.6976 298.131 60.0245 298.131 61.6332C298.131 63.2536 297.603 64.5688 296.957 64.5688C296.312 64.5688 295.784 66.154 295.784 68.0915C295.784 70.029 296.312 71.6142 296.957 71.6142C297.603 71.6142 298.131 72.4362 298.131 73.446C298.131 74.4558 298.659 74.949 299.305 74.5498C299.962 74.1388 300.479 75.1252 300.479 76.8278C300.479 78.4835 301.007 79.8338 301.652 79.8338C302.298 79.8338 302.826 80.8907 302.826 82.1823C302.826 83.474 303.354 84.5308 304 84.5308C304.645 84.5308 305.173 86.116 305.173 88.0535C305.173 90.8012 304.645 91.5762 302.826 91.5762C301.535 91.5762 300.479 92.0694 300.479 92.6683C300.479 93.2671 299.281 93.9951 297.838 94.277C296.382 94.5588 300.338 94.8523 306.641 94.9463C313.378 95.0402 318.085 95.5804 318.085 96.2732C318.085 98.2459 342.569 97.7762 344.576 95.7683ZM363.861 93.3376C363.861 91.083 363.333 89.2277 362.687 89.2277C362.041 89.2277 361.513 88.1709 361.513 86.8793C361.513 85.5876 360.985 84.5308 360.339 84.5308C359.694 84.5308 359.166 85.5524 359.166 86.7853C359.166 88.0183 358.696 89.216 358.133 89.4273C357.558 89.6387 356.724 91.541 356.278 93.6311C355.468 97.377 355.527 97.4474 359.659 97.4474C363.673 97.4474 363.861 97.2713 363.861 93.3376ZM261.921 92.9149C259.844 91.1065 259.397 89.4274 259.397 83.521C259.397 79.4933 258.869 76.3111 258.224 76.3111C257.578 76.3111 257.05 73.6691 257.05 70.44C257.05 67.2108 257.578 64.5688 258.224 64.5688C258.869 64.5688 259.397 62.1968 259.397 59.2847C259.397 56.3843 259.926 54.0006 260.571 54.0006C261.217 54.0006 261.745 52.9907 261.745 51.7578C261.745 50.5131 262.203 49.3271 262.778 49.1158C263.341 48.8927 264.175 46.5325 264.621 43.8669C265.325 39.6162 265.031 38.6181 262.355 35.9408C259.057 32.6412 253.975 32.0424 242.543 33.6159C237.495 34.3087 237.096 34.614 237.096 37.7257C237.096 39.5693 237.625 41.084 238.27 41.084C238.916 41.084 239.444 43.4677 239.444 46.3681C239.444 50.8772 239.092 51.6522 237.096 51.6522C235.524 51.6522 234.749 52.4389 234.749 54.0006C234.749 55.304 233.962 56.3491 232.988 56.3491C232.014 56.3491 231.228 56.8775 231.228 57.5233C231.228 58.1692 230.406 58.6976 229.408 58.6976C228.411 58.6976 226.321 59.8953 224.772 61.3396C223.211 62.7957 221.263 64.6157 220.417 65.3907C216.298 69.2188 214.361 73.9627 216.908 73.9627C217.976 73.9627 221.838 82.1706 221.838 84.4251C221.838 86.4565 224.831 89.2277 227.026 89.2277C228.082 89.2277 228.88 90.2258 228.88 91.541C228.88 93.7133 229.854 93.8777 244.432 94.23C252.977 94.4296 260.982 94.6997 262.214 94.8406C264.269 95.0872 264.257 94.9346 261.921 92.9149ZM218.316 89.7327C218.316 87.4077 214.96 83.9554 213.856 85.1414C213.398 85.6346 213.692 86.2686 214.502 86.5505C215.3 86.844 215.969 88.0887 215.969 89.3334C215.969 90.5663 216.497 91.5762 217.143 91.5762C217.788 91.5762 218.316 90.7542 218.316 89.7327ZM460.108 61.0461C460.108 59.7544 459.58 58.6976 458.934 58.6976C458.288 58.6976 457.76 59.7544 457.76 61.0461C457.76 62.3377 458.288 63.3945 458.934 63.3945C459.58 63.3945 460.108 62.3377 460.108 61.0461ZM773.896 20.758C772.511 19.3489 770.176 17.2705 768.697 16.155C767.23 15.0394 766.349 13.7947 766.748 13.3837C767.147 12.9845 768.755 13.9004 770.328 15.4269C771.889 16.9416 774.296 18.9613 775.681 19.9125C778.145 21.6151 782.007 26.9579 780.27 26.817C779.789 26.77 775.293 22.1788 773.896 20.758Z" fill="black"/>
</g>
<defs>
<clipPath id="clip0_111_2">
<rect width="939" height="276" fill="white"/>
</clipPath>
</defs>
</svg>
