<svg width="1179" height="316" viewBox="0 0 1179 316" fill="none" xmlns="http://www.w3.org/2000/svg">
<path fill-rule="evenodd" clip-rule="evenodd" d="M149.321 11.4089C150.922 8.3975 153.156 7.84619 156.361 7.39051C157.535 -0.405098 163.531 -0.224275 169.659 0.12934C169.939 0.145394 170.223 0.15859 170.508 0.171872C172.863 0.281594 175.343 0.397147 177.142 2.1779C179.757 4.76513 179.79 11.1155 179.812 15.3636C179.815 15.9689 179.818 16.5316 179.829 17.0346C188.167 15.6634 194.566 22.3542 200.741 28.8102C204.171 32.3967 207.533 35.9108 211.118 37.93C211.386 40.0417 212.102 41.9896 212.823 43.9473C213.356 45.3953 213.891 46.8486 214.247 48.3777C216.317 47.8149 218.442 47.3204 220.577 46.8239C224.532 45.9036 228.519 44.9762 232.239 43.5934C234.224 42.8552 236.141 41.9682 238.06 41.0801C240.253 40.0655 242.449 39.0494 244.754 38.2514C246.414 37.6765 248.184 37.1944 249.979 36.7056C254.151 35.5694 258.457 34.3965 261.83 31.9354C266.291 28.6805 268.939 23.6206 271.289 18.6732C271.368 18.5064 271.448 18.337 271.529 18.1657C273.124 14.7957 275.09 10.6412 278.472 8.99382C281.015 7.75456 287.925 5.77271 290.48 7.44434C294.689 10.1977 295.563 17.2974 295.6 21.8566C300.109 22.9452 304.513 24.4229 308.916 25.9005C316.306 28.3803 323.696 30.86 331.583 31.5006C333.614 35.2846 336.726 34.6463 340.09 33.9563C340.894 33.7913 341.713 33.6234 342.534 33.5122C343.559 33.3736 344.523 33.261 345.449 33.1529C349.303 32.7026 352.488 32.3305 356.615 30.4816C357.833 29.936 358.974 29.2731 360.113 28.6119C361.749 27.6621 363.379 26.7159 365.219 26.1265C366.25 25.7965 367.356 25.6193 368.466 25.4415C370.306 25.1468 372.155 24.8504 373.688 23.8545C375.059 22.964 376.103 21.6959 377.142 20.4334C378.457 18.8358 379.765 17.247 381.719 16.4431C384.064 15.4779 386.727 15.301 389.401 15.1233C392.689 14.9049 395.994 14.6853 398.743 12.9969C400.552 11.8857 401.459 9.97811 402.375 8.0527C403.524 5.63893 404.685 3.19719 407.653 2.26149C408.9 1.8682 410.09 2.27021 411.281 2.67218C411.854 2.86573 412.427 3.05926 413.006 3.164C413.756 3.29931 414.558 3.31187 415.367 3.32454C416.878 3.3482 418.413 3.37223 419.671 4.19834C423.324 6.5973 424.555 13.7676 424.669 17.8382C428.431 19.0445 430.919 21.9281 431.71 25.8749C433.386 26.1058 434.697 26.7633 436.038 27.4361C436.934 27.8851 437.843 28.341 438.883 28.6813C439.762 28.9688 440.652 29.1013 441.54 29.2336C442.707 29.4075 443.871 29.5809 445.005 30.1055C447.797 31.3976 450.442 33.0906 453.088 34.7836C455.319 36.2115 457.551 37.6395 459.87 38.8269C461.139 39.4765 462.523 39.7741 463.861 40.0619C466.523 40.6346 469.003 41.1681 470.039 44.3593C471.206 44.4541 472.423 44.6277 473.662 44.8045C476.89 45.2653 480.267 45.7473 483.292 44.9075C484.365 44.6095 485.134 43.7515 485.885 42.9129C486.765 41.931 487.621 40.9758 488.914 40.9775C490.096 40.9788 491.147 41.5507 492.204 42.1257C493.146 42.6383 494.093 43.1533 495.141 43.2688C499.326 43.7301 504.272 41.2427 507.575 38.8831C510.344 36.9045 514.239 34.0378 516.257 31.2603C517.06 30.1561 517.618 28.8999 518.175 27.6472C519.055 25.6648 519.933 23.691 521.769 22.3412C523.251 21.2519 525.073 21.2234 526.873 21.1953C528.82 21.1649 530.74 21.135 532.178 19.7646C533.574 18.4342 534.289 16.8907 534.967 15.426C536.115 12.9491 537.158 10.6973 541.211 10.0812C545.389 9.44629 550.882 12.7695 551.929 17.0659C552.295 18.5675 552.26 20.1253 552.226 21.6834C552.183 23.6167 552.14 25.5505 552.862 27.3778C553.598 29.2404 555.045 30.1 556.511 30.9707C557.601 31.6182 558.702 32.2717 559.528 33.3483C561.337 35.7075 561.096 39.7754 560.894 43.1909C560.835 44.1921 560.779 45.1371 560.779 45.9667C561.156 45.795 561.541 45.5905 561.934 45.3822C563.083 44.7725 564.295 44.1292 565.544 44.1729C568.191 44.2669 570.446 45.689 572.673 47.0933C574.446 48.2114 576.201 49.3182 578.121 49.7343C579.33 49.996 580.482 49.6134 581.631 49.2314C582.24 49.0292 582.848 48.8271 583.464 48.7209C584.326 48.5724 585.086 48.5334 585.774 48.4981C587.7 48.3993 589.058 48.3296 590.504 45.9667C593.476 46.428 595.722 46.9134 596.762 49.985C600.104 49.9829 602.98 49.2516 605.95 48.4966C607.526 48.0957 609.13 47.6881 610.842 47.3795C612.814 47.0242 614.82 46.8265 616.828 46.6286C619.819 46.3337 622.814 46.0385 625.705 45.2209C627.418 44.7364 628.992 44.2082 630.515 43.6976C634.494 42.3631 638.116 41.1482 642.914 41.1447C642.918 40.9785 642.921 40.811 642.924 40.6427C642.963 38.434 643.005 36.0615 644.035 34.0796C647.253 27.8938 658.385 22.2335 663.777 28.7344C666.822 32.4048 665.608 36.1138 664.372 39.8879C663.46 42.6737 662.536 45.4949 663.305 48.3624C663.732 49.9552 664.844 50.9859 665.964 52.0239C666.691 52.698 667.422 53.3752 667.97 54.2115L668.079 54.3784C672.202 60.665 676.014 66.4776 681.645 71.705C684.923 74.7474 687.997 77.8527 691.133 81.0205C691.54 81.4317 691.948 81.8439 692.358 82.2572C692.702 82.6042 693.035 82.9813 693.371 83.3618C694.397 84.5227 695.45 85.7151 696.928 86.1799C699.95 87.1314 701.544 84.5358 702.943 82.2594C703.133 81.9494 703.32 81.6455 703.506 81.3571C704.438 79.915 705.597 78.6951 706.723 77.5092C709.142 74.9617 711.413 72.5708 710.969 68.4695C711.747 67.1724 712.022 65.9327 712.338 64.5095C712.4 64.2298 712.464 63.9431 712.534 63.6474L715.662 65.2548C715.872 63.5867 716.292 61.945 716.71 60.3069C717.177 58.4796 717.643 56.6569 717.815 54.8071C717.966 53.1793 717.806 51.5857 717.645 49.9893C717.458 48.1358 717.271 46.2786 717.571 44.3593C717.8 42.8923 718.286 41.5176 718.77 40.1477C719.215 38.891 719.657 37.6385 719.899 36.3226C720.148 34.9683 720.032 33.6375 719.918 32.324C719.739 30.2642 719.564 28.247 720.804 26.2486C723.02 22.6755 728.451 19.4954 732.637 20.6422C734.124 21.0497 735.359 22.0439 736.579 23.027C737.185 23.5157 737.789 24.0017 738.418 24.4114C738.962 24.7657 739.595 25.0702 740.24 25.3809C741.597 26.0337 743.01 26.7136 743.774 27.9387C744.702 29.4269 744.648 31.9247 744.602 34.0919C744.585 34.9057 744.568 35.673 744.605 36.3226C747.459 37.1371 749.699 38.9922 751.959 40.8637C753.361 42.0245 754.771 43.1916 756.339 44.1207C763.041 48.0905 769.782 51.0518 776.736 54.1069C778.26 54.7763 779.794 55.4503 781.34 56.1404C786.818 58.5851 793.331 61.3393 799.362 61.897C803.024 62.2353 804.885 60.4436 807.028 58.38C807.803 57.6338 808.614 56.8521 809.562 56.1227C813.847 52.8239 818.7 49.7662 823.283 46.8793L823.552 46.7101C824.185 46.3118 824.789 45.9056 825.382 45.5071C827.753 43.9148 829.941 42.4449 833.001 42.0882C847.329 40.4208 859.965 45.3288 872.771 50.3026C877.198 52.0222 881.646 53.7498 886.191 55.2161C887.895 55.7664 889.705 56.7596 891.551 57.7722C894.473 59.3756 897.483 61.0274 900.302 61.0452C905.714 61.0786 906.824 56.1093 907.936 51.1361C909.12 45.8365 910.306 40.5324 916.698 41.2733C919.686 41.6196 922.995 44.07 924.082 47.0115C924.834 49.0495 924.54 51.2782 924.249 53.4878C923.93 55.9014 923.615 58.292 924.669 60.3861C925.597 62.2238 927.169 62.9549 928.766 63.6971C929.888 64.2189 931.022 64.7461 931.952 65.6671C932.783 66.491 933.353 67.4742 933.919 68.4489C934.736 69.8577 935.542 71.249 937.114 72.1173C944.452 76.1662 944.397 64.6601 944.076 60.4328C944.452 60.3852 944.83 60.3269 945.21 60.2684C947.031 59.988 948.884 59.7027 950.592 60.5638C951.394 60.9659 952.1 61.5531 952.797 62.1336C954.143 63.2528 955.458 64.3474 957.374 64.0453C960.292 63.586 963.499 61.6082 966.365 59.8408C967.325 59.2483 968.248 58.6794 969.108 58.1994C975.968 54.3699 983.11 50.6545 990.228 47.4213C990.832 47.1468 991.668 46.8817 992.597 46.5874C995.917 45.5349 1000.42 44.1082 999.678 40.5379C999.006 37.2672 995.956 34.2119 993.386 31.6369C992.724 30.9729 992.093 30.3409 991.543 29.7454C985.277 22.9769 978.761 16.3932 971.783 10.4002C970.77 9.52912 969.614 8.68166 968.433 7.8163C965.686 5.8028 962.807 3.69235 961.286 0.961142C965.677 1.99628 968.798 4.82883 972.007 7.74165C972.896 8.54895 973.793 9.36242 974.724 10.1455C975.845 11.086 977.02 12.0544 978.231 13.0518C988.909 21.8479 1002.31 32.8896 1004.31 46.7704C1001 47.2826 998.115 48.7777 995.186 50.2969C994.324 50.7442 993.458 51.1935 992.575 51.6205C988.07 53.8001 983.737 56.2007 979.4 58.6039C975.747 60.6278 972.091 62.6535 968.326 64.5508C967.064 65.1869 965.657 65.7597 964.212 66.3478C960.392 67.903 956.309 69.5651 953.948 72.79C952.59 74.6457 952.925 77.5173 953.227 80.1124C953.344 81.1204 953.457 82.0867 953.463 82.9355C949.325 83.5174 941.229 88.1899 942.105 93.3632C942.56 96.0846 944.803 97.9713 946.87 99.7105C947.43 100.182 947.977 100.642 948.472 101.106C950.071 102.605 951.581 104.405 953.115 106.233C956.594 110.38 960.191 114.667 965.197 115.886C965.571 117.048 966.051 118.111 966.525 119.16C967.322 120.921 968.1 122.643 968.326 124.726C973.598 126.449 974.138 131.755 973.668 136.781C972.808 146.06 969.906 156.383 964.806 164.105C964.181 165.054 963.316 166.052 962.423 167.083C960.787 168.97 959.055 170.969 958.524 172.978C957.921 175.242 958.476 178.257 959.015 181.181C959.37 183.111 959.718 185 959.721 186.609C960.982 186.855 962.185 187.282 963.385 187.707C964.994 188.278 966.597 188.846 968.326 188.976C971.587 189.221 974.773 188.773 977.95 188.326C980.731 187.934 983.505 187.544 986.317 187.621C990.356 187.732 994.204 188.443 998.06 189.155C1000.9 189.679 1003.73 190.204 1006.66 190.491C1009.4 190.76 1012.11 190.938 1014.82 191.115C1020.47 191.485 1026.06 191.851 1031.69 193.038V316H93V137.585C96.1433 137.585 99.3185 137.484 102.497 137.383C107.178 137.235 111.866 137.086 116.467 137.259C119.46 137.371 122.454 137.775 125.447 138.178C128.972 138.654 132.497 139.129 136.023 139.129C137.724 139.129 139.415 138.945 141.108 138.76C142.795 138.576 144.486 138.392 146.192 138.389C148.493 138.385 150.974 138.71 153.492 139.041C157.955 139.626 162.538 140.227 166.457 139.04C168.836 138.319 169.92 136.452 170.995 134.599C172.016 132.84 173.029 131.093 175.135 130.352C175.13 123.068 173.862 115.749 172.279 108.653C172.042 107.591 171.694 106.458 171.336 105.291C170.45 102.403 169.501 99.3124 170.018 96.5979C171.055 91.1494 174.746 86.3126 178.401 81.5236C181.071 78.0237 183.722 74.5494 185.304 70.8805H182.175L183.74 63.6474C182.531 64.9116 181.581 66.6895 180.62 68.4876C179.259 71.0324 177.877 73.6178 175.712 74.845C174.391 75.5932 172.967 75.339 171.551 75.0863C170.915 74.9728 170.282 74.8597 169.659 74.8378C168.313 74.7907 166.965 75.0345 165.616 75.2785C164.617 75.4592 163.618 75.6399 162.619 75.7025C162.567 78.21 162.4 80.5816 161.459 82.9347C159.862 86.9282 154.367 92.5876 149.766 89.3424C148.105 88.1708 147.543 86.0513 146.995 83.9826C146.684 82.8087 146.377 81.6512 145.876 80.6925C145.307 79.6027 144.586 78.7098 143.875 77.8284C142.804 76.5006 141.754 75.1987 141.272 73.2883C140.374 69.732 141.047 67.4761 144.628 66.8621V59.6291H139.934C140.189 58.5168 140.455 57.4139 140.72 56.3152C141.862 51.5854 142.985 46.9336 143.066 41.9483C143.069 41.772 143.071 41.5902 143.073 41.4037C143.113 38.3583 143.169 34.0653 145.656 32.1122C147.006 31.0516 148.41 31.2529 149.853 31.4598C150.706 31.5821 151.573 31.7064 152.45 31.5729C154.018 31.3337 155.505 30.4701 156.967 29.6212C157.813 29.1299 158.651 28.6436 159.49 28.2859C159.259 27.3332 159.05 26.3873 158.844 25.457C157.436 19.1018 156.19 13.477 149.321 11.4089ZM152.468 35.0939C154.854 31.5232 160.98 29.191 164.966 28.634C171.251 27.7556 171.607 31.868 170.215 37.1264C168.815 42.4129 166.138 48.9974 160.273 49.8332C156.743 50.3355 146.597 48.9886 148.33 42.8855C148.567 42.0487 149.16 41.4058 149.752 40.7639C150.172 40.3084 150.591 39.8534 150.883 39.3301C151.227 38.712 151.411 38.0263 151.594 37.3422C151.805 36.5557 152.015 35.7713 152.468 35.0939ZM327.002 57.96C332.318 58.6672 338.386 49.3358 340.188 45.1631C341.907 45.0494 344.05 44.0779 346.214 43.0962C351.085 40.8875 356.07 38.627 356.615 45.9668C359.956 46.2126 362.131 45.0301 364.578 43.6995C365.635 43.1248 366.742 42.5226 368.017 41.9958C370.694 40.8888 373.894 40.6404 376.818 40.4133C377.127 40.3893 377.433 40.3656 377.735 40.3411C376.66 46.5671 377.835 52.3005 383.993 54.8071V57.2182C380.556 59.3359 379.789 67.5347 379.327 72.4784C379.271 73.0691 379.22 73.6134 379.17 74.0952C379.145 74.335 379.12 74.5784 379.095 74.8246C378.888 76.8818 378.662 79.1292 377.861 80.9875C377.588 81.6207 377.213 82.2272 376.837 82.836C376.05 84.1102 375.257 85.3945 375.375 86.9548C375.516 88.8078 376.835 90.4569 377.99 91.9006C378.172 92.128 378.35 92.3504 378.518 92.5676C382.811 98.1001 385.852 99.492 392.598 98.2054C394.757 105.708 391 113.587 386.943 119.759C386.302 120.734 385.575 121.617 384.851 122.495C383.668 123.932 382.495 125.356 381.728 127.15C380.763 129.407 380.007 131.794 379.254 134.173C378.806 135.591 378.358 137.006 377.867 138.388C377.729 138.777 377.61 139.206 377.487 139.649C377.122 140.965 376.725 142.393 375.71 143.188C374.48 144.153 372.59 144.091 370.972 144.037C370.601 144.025 370.244 144.013 369.913 144.015L370.695 147.229C362.672 146.363 354.752 146.39 346.72 146.416C345.329 146.421 343.934 146.426 342.534 146.426C341.911 146.426 341.194 146.481 340.438 146.539C337.414 146.773 333.782 147.054 333.148 144.015C330.238 144.768 322.853 146.344 322.196 143.211C321.973 143.263 321.737 143.328 321.495 143.395C320.716 143.61 319.864 143.845 319.103 143.753C314.722 143.224 315.237 139.179 315.755 135.115C316.052 132.776 316.351 130.43 315.718 128.745C315.118 127.149 314.342 125.633 313.566 124.115C312.728 122.478 311.89 120.84 311.272 119.101C310.979 118.274 310.831 117.383 310.684 116.492C310.48 115.263 310.277 114.034 309.69 112.974C309.132 111.965 308.29 111.172 307.452 110.384C306.202 109.207 304.96 108.038 304.685 106.17C304.426 104.414 304.992 102.609 305.553 100.824C305.915 99.6688 306.275 98.5219 306.407 97.4017C307.149 91.1146 306.233 85.4776 303.799 79.7241C303.454 78.9086 303.128 78.0538 302.798 77.1892C302.013 75.1296 301.206 73.0145 300.071 71.2422C299.415 70.2193 298.453 69.1371 297.441 67.9975C294.498 64.6873 291.127 60.8939 293.596 56.6701C294.892 54.4522 298.056 54.5395 300.956 54.6196C302.412 54.6598 303.802 54.6981 304.854 54.4415C305.561 54.2689 306.28 54.0825 307.006 53.8941C311.921 52.6183 317.207 51.2462 322.081 53.412C323.053 53.8438 323.684 54.7666 324.302 55.6708C325.036 56.7454 325.752 57.7937 327.002 57.96ZM419.636 47.853C420.869 46.0366 422.138 44.1682 423.105 41.9484C424.335 42.0726 425.62 41.9301 426.899 41.7883C428.568 41.6033 430.227 41.4194 431.74 41.8303C436.075 43.0077 440.789 44.4559 445.005 46.0391C445.645 46.2794 446.304 46.6157 446.974 46.9576C448.187 47.5763 449.437 48.2138 450.676 48.336C451.763 48.4428 452.696 47.9494 453.618 47.4621C454.771 46.8526 455.906 46.2526 457.301 46.8484C459.021 47.5839 460.27 49.0295 461.528 50.4864C462.861 52.0286 464.204 53.5836 466.129 54.3225C468.277 55.1474 471.027 55.3939 473.866 55.6483C478.731 56.0844 483.858 56.5439 486.668 59.9772C489.149 63.0086 487.825 68.0275 486.423 71.2213C482.946 79.1479 479.032 86.5738 474.968 94.187C473.47 96.9934 471.821 104.115 477.094 104.124C479.53 104.128 481.683 101.664 483.448 99.6445C483.908 99.1172 484.343 98.6203 484.749 98.2054C489.189 93.6678 492.923 89.5916 495.542 83.667C496.145 82.3034 496.536 80.933 496.914 79.6105C497.82 76.4419 498.646 73.5486 502.111 71.6842V75.7026C502.694 75.189 503.425 74.2355 504.238 73.176C506.134 70.7057 508.472 67.6594 510.391 68.2702C512.544 68.955 512.296 72.385 511.891 74.0952C511.677 74.9952 511.367 75.8433 511.059 76.688C510.607 77.9235 510.158 79.1518 510.018 80.5246C509.599 84.6294 510.17 88.4492 510.748 92.3192C511.037 94.2547 511.328 96.2028 511.498 98.2054H513.845C513.836 101.406 513.249 104.367 512.654 107.367C512.31 109.104 511.963 110.854 511.724 112.671C511.633 113.362 511.556 114.071 511.477 114.789C511.013 119.02 510.513 123.569 507.11 126.452C505.754 127.601 504.047 128.149 502.339 128.697C500.975 129.135 499.61 129.573 498.424 130.318C496.804 131.336 495.283 132.454 493.768 133.568C490.983 135.617 488.219 137.649 484.901 139.004C483.271 139.67 481.291 139.887 479.295 140.106C474.887 140.589 470.4 141.08 469.435 146.429C469.156 147.977 469.195 149.624 469.232 151.233C469.245 151.78 469.257 152.322 469.257 152.855H450.483V150.444C447.221 150.444 444.088 150.847 440.95 151.25C438.672 151.543 436.392 151.837 434.056 151.977C432.753 152.054 431.463 151.935 430.173 151.817C428.864 151.696 427.555 151.575 426.234 151.661C425.555 151.705 424.782 151.804 423.961 151.91C421.158 152.272 417.8 152.706 415.73 151.225C412.625 149.004 412.744 143.656 412.842 139.245C412.876 137.72 412.908 136.307 412.803 135.174C412.628 133.285 412.165 131.214 411.689 129.082C410.703 124.668 409.659 119.995 410.991 116.147C411.68 114.157 415.33 107.755 417.095 106.838C418.279 106.224 419.624 106.222 420.963 106.22C422.665 106.217 424.358 106.215 425.696 104.954C428.382 102.421 429.992 96.7791 431.157 92.6976C431.332 92.0816 431.498 91.5012 431.656 90.9723C433.025 86.381 431.682 81.2896 430.364 76.2965C429.509 73.0558 428.665 69.8565 428.581 66.8622H426.234C426.116 64.0969 425.329 61.6625 424.536 59.2075C423.99 57.5206 423.442 55.824 423.105 54.0035C421.117 54.334 419.901 55.4263 418.672 56.5309C417.686 57.4166 416.691 58.3102 415.283 58.8255C415.333 54.1898 417.428 51.1048 419.636 47.853ZM218.941 55.6108C221.6 54.6151 223.929 54.0718 226.763 54.0035C227.906 50.4658 231.157 50.603 234.347 50.7376C234.955 50.7632 235.561 50.7888 236.15 50.7888C237.26 50.7888 238.47 50.6737 239.706 50.5563C241.937 50.3442 244.247 50.1245 246.186 50.5622C247.548 50.8695 248.883 51.6305 250.197 52.3792C250.999 52.8363 251.793 53.2888 252.58 53.6306C252.858 53.7514 253.129 53.8666 253.392 53.9787C256.275 55.2052 258.266 56.0526 258.835 59.6292L262.746 58.8255C261.737 66.7955 258.228 74.1378 254.721 81.477C251.833 87.5203 248.947 93.5615 247.457 99.9493C245.978 106.293 247.041 112.106 248.144 118.14C248.491 120.038 248.842 121.958 249.119 123.923C250.186 131.491 252.001 137.736 257.27 143.211H249.448V140.8C240.333 142.386 232.131 142.407 222.852 142.407C222.061 142.407 221.231 142.43 220.38 142.453C216.81 142.55 212.855 142.657 209.759 141.162C208.726 140.663 207.992 139.815 207.255 138.963C206.679 138.298 206.101 137.631 205.377 137.125C204.805 136.726 204.141 136.47 203.477 136.214C202.525 135.846 201.574 135.479 200.901 134.693C199.169 132.672 198.355 129.263 197.579 126.018C197.116 124.079 196.666 122.199 196.044 120.708C195.493 119.391 194.621 118.041 193.724 116.655C191.625 113.408 189.395 109.959 190.861 106.242C192.094 103.114 194.851 100.759 197.372 98.6052C197.767 98.2681 198.156 97.936 198.532 97.6066C199.542 96.7222 200.401 95.6723 201.258 94.6243C202.375 93.2582 203.489 91.8955 204.933 90.9072C206.587 89.7755 208.174 88.8855 209.704 88.0278C212.805 86.2892 215.67 84.6832 218.37 81.4649C218.818 80.9317 219.347 80.3768 219.899 79.7992C221.536 78.0837 223.366 76.1675 223.795 74.0229C224.15 72.2512 223.423 70.3775 222.745 68.628C222.509 68.0213 222.28 67.4296 222.103 66.8622C221.623 65.3198 221.258 63.7999 220.896 62.2886C220.361 60.0593 219.831 57.8485 218.941 55.6108ZM563.126 75.7026L562.344 70.8806C566.147 71.33 569.224 70.1311 572.518 68.8477C573.771 68.3593 575.056 67.8587 576.424 67.432C579.46 66.485 582.477 65.4052 585.495 64.3249C595.742 60.657 606.004 56.9836 617.1 58.4847C617.897 58.5924 618.726 58.6393 619.563 58.6867C621.387 58.79 623.247 58.8953 624.877 59.6364C630.676 62.2745 629.164 74.2328 628.405 80.2369C628.355 80.6273 628.309 80.9925 628.268 81.3283C628.032 83.274 627.469 85.0383 626.904 86.8086C626.47 88.1649 626.036 89.5248 625.747 90.9723C625.185 93.7855 625.129 96.5674 625.072 99.3609C625.037 101.111 625.001 102.865 624.841 104.635C624.669 106.54 624.418 108.388 624.17 110.219C623.632 114.18 623.105 118.065 623.401 122.303C623.532 124.194 624.182 125.932 624.835 127.678C625.261 128.82 625.689 129.965 625.975 131.159C627.718 138.452 629.302 146.137 629.616 153.659C622.747 155.237 614.697 156.147 607.581 156.432C606.29 156.484 605.037 156.352 603.783 156.219C602.249 156.057 600.714 155.895 599.109 156.07C597.581 154.402 596.515 153.606 594.415 152.855C593.962 159.484 588.959 160.084 583.464 160.088V156.873L579.553 157.677C578.419 156.385 577.948 156.018 576.424 155.266C575.819 158.164 571.487 159.193 568.775 158.213C568.236 158.018 567.783 157.674 567.332 157.331C566.761 156.897 566.192 156.464 565.451 156.337C564.43 156.162 563.337 156.354 562.232 156.548C561.221 156.726 560.2 156.905 559.215 156.807C557.552 156.64 555.929 156.455 554.325 156.272C549.443 155.715 544.741 155.178 539.659 155.266C539.983 147.987 544.058 140.042 547.452 133.425C547.708 132.925 547.961 132.432 548.208 131.947C548.55 131.275 548.906 130.629 549.257 129.992C550.584 127.579 551.836 125.304 552.007 122.315C552.236 118.33 550.116 115.446 547.975 112.534C546.366 110.345 544.745 108.14 544.099 105.438C542.962 100.671 544.023 94.7879 544.994 89.4068C545.352 87.4222 545.698 85.506 545.917 83.7393H549.046C548.708 80.6628 548.084 79.07 545.134 78.1136L547.481 72.4879H549.046V74.8989C551.718 73.74 554.108 72.9396 556.868 74.0952L553.739 74.8989C554.875 75.1006 555.109 75.1521 556.086 75.7026C554.879 75.7026 554.867 75.7109 554.156 76.2145C554.039 76.2976 553.903 76.3941 553.739 76.5063C554.25 76.8131 554.491 76.9511 554.678 77.142C554.867 77.3352 555.001 77.5825 555.303 78.1136C555.567 77.9663 555.824 77.8202 556.076 77.677C558.416 76.3481 560.325 75.2637 563.126 75.7026ZM786.846 83.7393C787.774 82.7861 788.085 82.5113 789.193 82.1319C791.579 85.0766 795.982 90.1381 799.981 87.2722C801.937 85.8698 805.988 81.5396 805.683 78.9052C805.563 77.8744 804.788 76.7395 803.997 75.5818C802.53 73.4324 801.008 71.2042 803.526 69.4163C806.691 67.1688 812.064 67.3873 816.563 67.5703C817.99 67.6284 819.33 67.6828 820.483 67.6538C823.009 67.5903 825.906 67.3038 828.98 66.9998C842.089 65.7035 858.399 64.0906 862.724 78.1136C866.452 78.7173 867.655 80.8979 869.084 83.489C869.613 84.447 870.172 85.4612 870.902 86.4726C873.746 90.4154 879.855 96.2235 884.626 96.598V99.009H887.755C888.521 100.407 889.597 101.416 890.659 102.411C892.039 103.704 893.394 104.974 894.013 107.046H899.489C900.365 112.355 900.328 117.016 900.288 122.153C900.28 123.253 900.271 124.375 900.271 125.53H896.36C897.095 128.434 898.229 129.594 901.053 130.352V135.978C902.461 135.526 903.494 135.316 904.964 135.174C906.169 141.755 907.162 148.546 906.427 155.266C906.228 157.09 905.801 158.854 905.373 160.619C904.841 162.811 904.309 165.005 904.214 167.321C904.084 170.468 904.527 173.546 904.971 176.627C905.332 179.136 905.694 181.647 905.747 184.198H901.835V181.787C901.197 181.933 900.556 182.146 899.921 182.357C897.774 183.069 895.691 183.76 894.013 181.787C887.672 183.059 881.397 181.555 875.24 180.079C872.875 179.512 870.527 178.949 868.199 178.55C866.693 178.292 865.246 178.181 863.838 178.073C860.463 177.816 857.314 177.575 854.119 175.358C852.87 181.314 847.92 171.756 847.861 168.928C847.07 169.208 846.311 169.557 845.561 169.901C843.331 170.924 841.186 171.909 838.539 170.938C837.283 170.476 836.051 169.616 834.809 168.748C832.964 167.459 831.095 166.154 829.087 166.116C827.186 166.079 826.047 167.014 824.912 167.947C824.046 168.658 823.182 169.368 821.982 169.643C819.518 170.207 816.997 169.816 814.504 169.429C813.094 169.211 811.692 168.993 810.313 168.951C809.328 168.92 808.353 169.111 807.381 169.301C806.272 169.518 805.168 169.734 804.056 169.62C803.25 169.538 802.504 169.235 801.759 168.932C800.982 168.616 800.206 168.3 799.362 168.236C798.037 168.136 796.25 168.627 794.334 169.154C790.665 170.162 786.525 171.299 784.26 168.661C783.007 167.2 782.616 165.084 782.248 163.097C782.106 162.327 781.967 161.577 781.784 160.892C780.491 156.072 779.16 150.667 779.024 145.622C778.973 143.751 779.188 141.782 779.401 139.817C779.664 137.406 779.925 135.001 779.697 132.786C779.458 130.458 777.994 128.476 776.625 126.622C776.274 126.147 775.929 125.68 775.613 125.218C774.353 123.379 773.247 121.121 772.188 118.96C771.752 118.07 771.324 117.198 770.897 116.377C769.525 113.74 767.084 106.963 770.419 106.242C769.119 97.2217 779.165 85.8554 786.064 81.3283C786.6 82.3313 786.65 82.5724 786.846 83.7393ZM669.292 86.1189C667.902 82.4606 667.197 78.8072 667.164 74.8989C674.014 77.3928 680.809 83.8004 686.58 89.2427C687.623 90.2263 688.633 91.1784 689.603 92.0701C690.413 92.8143 691.179 93.9382 691.976 95.1072C693.566 97.4387 695.278 99.9494 697.702 99.9831C703.633 100.066 707.202 96.1637 710.774 92.2566C714.107 88.6123 717.443 84.9642 722.703 84.543C722.734 84.3767 722.761 84.2275 722.785 84.0928C723.006 82.8649 723.01 82.8417 724.267 82.1319C724.491 83.1619 724.737 84.1861 724.983 85.2094C725.881 88.9405 726.776 92.6594 726.54 96.598C726.356 99.68 725.55 102.694 724.744 105.707C724.056 108.282 723.367 110.858 723.066 113.475C722.802 115.778 722.907 118.019 723.013 120.259C723.156 123.31 723.3 126.357 722.507 129.549C721.85 132.195 720.796 134.687 719.743 137.18C718.689 139.673 717.634 142.168 716.976 144.818C715.95 148.952 715.778 152.038 717.418 156.07C717.54 156.369 717.707 156.707 717.886 157.068C718.628 158.563 719.567 160.456 718.274 161.674C716.25 163.58 711.15 163.439 707.621 163.341C706.81 163.319 706.082 163.298 705.493 163.306C697.274 163.41 689.998 162.661 681.893 161.33C680.608 161.118 679.323 161.25 678.034 161.382C676.764 161.513 675.49 161.644 674.207 161.447C672.332 161.16 670.727 160.315 669.101 159.459C668.464 159.123 667.824 158.786 667.164 158.481C667.572 152.979 670.641 153.072 674.041 153.175C676.389 153.246 678.895 153.322 680.793 151.567C683.615 148.956 682.171 143.108 681.107 138.797C680.846 137.742 680.609 136.779 680.462 135.978C680.298 136.09 680.162 136.187 680.044 136.27C679.333 136.773 679.322 136.782 678.115 136.782C678.304 131.845 676.814 128.709 675.047 124.991C674.421 123.672 673.759 122.279 673.125 120.707C672.457 119.049 671.966 117.328 671.477 115.61C670.96 113.798 670.445 111.99 669.723 110.264C669.398 109.487 668.939 108.731 668.478 107.971C667.781 106.822 667.077 105.663 666.818 104.406C666.335 102.064 667.685 100.06 669.059 98.0203C670.208 96.3148 671.374 94.5845 671.498 92.611C671.605 90.9215 670.884 89.4728 670.162 88.0203C669.85 87.3938 669.538 86.7665 669.292 86.1189ZM524.754 123.425C525.969 120.334 527.184 117.244 528.707 114.279C532.732 115.881 538.817 120.286 537.613 125.53C537.201 127.327 536.273 128.977 535.341 130.634C534.514 132.106 533.683 133.583 533.208 135.174C532.778 136.611 532.694 138.087 532.609 139.565C532.539 140.786 532.469 142.008 532.205 143.211C531.888 144.649 531.462 145.999 531.04 147.334C530.316 149.629 529.605 151.88 529.49 154.462C527.304 153.935 525.637 154.195 523.842 154.475C522.882 154.625 521.885 154.781 520.752 154.825C519.588 154.87 518.44 154.677 517.289 154.483C516.15 154.291 515.008 154.099 513.845 154.137C513 154.164 512.145 154.262 511.29 154.359C508.913 154.629 506.545 154.899 504.458 153.659C501.232 155.693 496.721 156.139 492.648 156.541C491.591 156.646 490.563 156.748 489.595 156.873V152.855C488.187 153.307 487.153 153.517 485.684 153.659C486.048 148.85 489.309 147.807 492.96 146.64C493.913 146.335 494.892 146.022 495.853 145.632C497.964 144.773 500.006 143.741 502.052 142.707C504.379 141.53 506.71 140.352 509.151 139.425C510.145 139.048 511.215 138.755 512.296 138.459C514.443 137.872 516.634 137.272 518.362 135.974C520.009 134.737 520.815 132.849 521.612 130.985C521.769 130.617 521.926 130.25 522.089 129.889C523.048 127.764 523.901 125.594 524.754 123.425ZM189.215 139.193L187.651 131.156H189.998L190.05 131.326C191.024 134.518 191.674 136.644 189.215 139.193ZM395.686 132.657C395.965 132.15 396.24 131.649 396.509 131.156H398.073C398.177 133.62 398.508 136.031 398.839 138.442C399.238 141.341 399.636 144.24 399.638 147.229C399.422 147.212 399.21 147.194 399.001 147.177C395.493 146.887 392.924 146.675 389.469 148.033C390.138 142.747 393.075 137.406 395.686 132.657Z" fill="#FC8C54"/>
<path d="M0 125C0 125 487.891 150.088 759.376 150.088C873.681 150.088 888.844 187.388 993.249 178.637C1097.65 169.887 1179 150.088 1179 150.088V316L0 316V125Z" fill="#FC8C54"/>
</svg>
