<svg width="40" height="40" viewBox="0 0 40 40" fill="none" xmlns="http://www.w3.org/2000/svg">
<path fill-rule="evenodd" clip-rule="evenodd" d="M40 20C40 31.0457 31.0457 40 20 40C8.9543 40 0 31.0457 0 20C0 8.9543 8.9543 0 20 0C31.0457 0 40 8.9543 40 20ZM21.7919 14.2774C18.3237 15.7225 8.32368 19.8265 8.32368 19.8265C5.95374 20.7514 7.34102 21.6184 7.34102 21.6184C7.34102 21.6184 9.36414 22.312 11.0982 22.8323C12.8324 23.3525 13.7572 22.7745 13.7572 22.7745C13.7572 22.7745 17.8035 20.1155 21.9075 17.2831C24.7977 15.3178 24.104 16.9363 23.4104 17.63C21.9075 19.1329 19.4219 21.5028 17.341 23.4103C16.4162 24.2196 16.8786 24.9132 17.2832 25.26C18.4595 26.2553 21.2292 28.0651 22.4883 28.8878C22.838 29.1162 23.0711 29.2686 23.1214 29.3063C23.4104 29.5375 25.0289 30.5779 26.0115 30.3467C26.9942 30.1155 27.1098 28.786 27.1098 28.786C27.1098 28.786 27.8613 24.0462 28.5549 19.7109C28.6833 18.8601 28.8117 18.0272 28.9315 17.2504C29.243 15.2302 29.4958 13.5902 29.5376 13.0057C29.711 11.0404 27.63 11.8496 27.63 11.8496C27.63 11.8496 23.1214 13.6993 21.7919 14.2774Z" fill="#935351"/>
</svg>
